<?xml version="1.0" standalone="no"?>
<!DOCTYPE svg PUBLIC "-//W3C//DTD SVG 20010904//EN"
 "http://www.w3.org/TR/2001/REC-SVG-20010904/DTD/svg10.dtd">
<svg version="1.0" xmlns="http://www.w3.org/2000/svg"
 width="346.000000pt" height="346.000000pt" viewBox="0 0 346.000000 346.000000"
 preserveAspectRatio="xMidYMid meet">
<metadata>
Created by potrace 1.11, written by Peter Selinger 2001-2013
</metadata>
<g transform="translate(0.000000,346.000000) scale(0.100000,-0.100000)"
fill="#000000" stroke="none">
<path d="M1584 3351 c-5 -5 -31 -12 -59 -15 -76 -9 -117 -16 -154 -26 -19 -5
-38 -7 -43 -4 -4 3 -8 1 -8 -4 0 -5 -6 -9 -12 -10 -43 -6 -57 -10 -143 -45
-16 -6 -32 -12 -35 -13 -3 0 -21 -8 -40 -16 -19 -9 -39 -14 -45 -11 -5 4 -7 3
-3 -1 8 -10 -121 -78 -133 -70 -5 3 -8 0 -7 -8 2 -7 -5 -12 -15 -11 -10 0 -16
-1 -13 -4 6 -7 -38 -43 -52 -43 -5 0 -13 -7 -16 -16 -3 -8 -10 -12 -16 -9 -6
3 -13 0 -16 -9 -3 -8 -12 -17 -21 -20 -11 -5 -13 -2 -9 9 3 10 2 13 -5 10 -6
-4 -8 -13 -5 -20 6 -17 -68 -76 -87 -69 -8 3 -18 1 -22 -5 -3 -7 0 -8 9 -5 25
9 19 -6 -12 -32 -15 -13 -34 -22 -42 -18 -12 4 -12 3 -3 -7 12 -12 1 -26 -85
-115 -13 -13 -20 -24 -17 -24 3 0 -3 -9 -14 -21 -12 -13 -24 -18 -33 -13 -10
6 -10 4 1 -9 9 -11 10 -17 2 -17 -6 0 -11 -7 -11 -15 0 -8 -4 -15 -8 -15 -5 0
-14 -12 -20 -26 -7 -15 -17 -22 -24 -18 -6 4 -8 3 -5 -3 8 -13 -26 -80 -50
-100 -10 -8 -12 -12 -6 -8 9 4 11 1 7 -9 -3 -9 -10 -13 -15 -10 -5 3 -6 -1 -3
-9 3 -8 -2 -22 -11 -31 -9 -9 -14 -16 -11 -16 3 0 0 -13 -5 -30 -6 -16 -15
-28 -19 -25 -4 3 -6 -4 -3 -15 3 -11 0 -20 -6 -20 -6 0 -10 -3 -9 -7 4 -15
-26 -102 -34 -97 -4 3 -8 0 -8 -5 0 -6 5 -11 11 -11 5 0 7 -5 4 -10 -4 -6 -12
-7 -18 -3 -7 4 -6 0 2 -10 7 -9 9 -17 4 -17 -5 0 -10 -6 -11 -12 -3 -39 -14
-103 -18 -110 -3 -5 -11 -5 -17 -1 -9 5 -9 3 -1 -8 5 -8 10 -21 9 -29 -1 -8
-3 -32 -3 -53 -1 -25 -6 -36 -13 -31 -8 5 -8 1 0 -13 7 -14 7 -23 -1 -31 -9
-9 -9 -12 1 -12 11 0 11 -3 0 -17 -8 -9 -13 -19 -12 -22 1 -3 -6 -5 -17 -5
-11 1 -17 -2 -15 -7 3 -4 14 -6 24 -4 18 3 19 -3 18 -84 0 -48 3 -93 8 -101 5
-9 4 -15 -4 -18 -8 -3 -9 -8 -2 -16 6 -7 12 -38 13 -69 2 -31 7 -57 12 -57 4
0 3 -7 -4 -15 -7 -9 -10 -18 -6 -22 3 -3 6 0 7 8 0 8 4 4 9 -8 5 -12 7 -31 5
-43 -2 -11 1 -20 7 -20 6 0 8 -3 5 -7 -4 -3 -2 -12 4 -20 9 -10 8 -13 -2 -13
-12 0 -12 -2 0 -9 18 -12 44 -85 31 -89 -15 -5 -12 -22 2 -20 8 2 12 -5 10
-16 -2 -12 1 -16 9 -11 7 5 10 3 7 -6 -3 -8 -12 -12 -19 -11 -8 2 -10 0 -6 -5
5 -4 13 -9 18 -9 5 -1 14 -2 19 -3 6 0 10 -6 10 -12 0 -5 -4 -8 -8 -5 -4 2 -8
-7 -9 -22 -1 -22 0 -23 6 -8 5 14 10 16 15 8 4 -7 4 -17 0 -24 -4 -6 -3 -8 3
-5 9 6 79 -120 75 -135 -1 -5 2 -8 8 -8 5 0 10 -5 10 -11 0 -6 7 -17 16 -26 8
-9 13 -22 10 -29 -3 -9 0 -11 11 -7 13 5 15 2 9 -12 -4 -11 -4 -16 0 -13 4 4
22 -13 42 -38 27 -36 32 -48 21 -54 -7 -5 -16 -7 -20 -4 -10 6 -5 -24 6 -33 4
-4 5 -3 1 4 -4 7 2 17 14 23 18 10 24 7 43 -17 12 -15 41 -47 64 -71 47 -47
52 -54 26 -45 -10 3 -15 3 -12 -1 4 -4 16 -8 27 -11 11 -2 33 -15 49 -28 77
-69 101 -88 135 -109 23 -14 36 -28 33 -37 -5 -12 -3 -12 12 0 15 13 16 12 10
-10 -4 -17 -3 -21 5 -13 8 8 17 8 32 0 28 -15 46 -34 39 -41 -3 -4 4 -4 16 -2
13 2 40 -7 63 -21 22 -14 49 -27 61 -30 11 -2 24 -9 29 -16 4 -7 8 -10 8 -6 0
4 28 -5 62 -19 35 -14 71 -27 82 -29 11 -2 23 -9 28 -16 6 -10 8 -10 8 0 0 7
5 10 11 7 16 -11 121 -34 152 -35 15 0 27 -3 27 -8 0 -4 14 -7 31 -7 23 0 33
-5 35 -18 1 -11 6 -22 9 -25 4 -4 6 0 5 8 -4 26 0 41 8 36 5 -3 36 -6 70 -7
38 -1 59 -6 55 -12 -4 -6 -1 -7 8 -1 12 8 75 12 236 18 22 0 39 4 37 7 -5 9
134 32 147 23 8 -5 9 -3 4 6 -6 10 -3 12 13 8 14 -4 20 -2 15 5 -4 6 0 8 10 4
9 -3 17 -3 19 1 4 9 148 58 155 54 3 -2 9 0 12 5 3 5 33 23 66 38 33 16 86 45
117 63 32 19 62 31 69 26 7 -4 9 -3 6 3 -9 14 19 37 34 27 7 -4 9 -3 6 3 -7
11 96 95 107 87 3 -2 4 -1 2 2 -7 9 45 54 56 48 4 -3 7 -1 6 3 -4 14 135 163
146 156 5 -4 6 -1 1 6 -4 8 3 23 18 39 95 102 234 395 286 602 46 185 51 492
11 680 -122 580 -516 1019 -1080 1206 -25 9 -52 17 -60 19 -183 44 -200 46
-384 51 -87 2 -162 6 -166 9 -4 2 -11 0 -16 -4z"/>
<path d="M216 2353 c-6 -14 -5 -15 5 -6 7 7 10 15 7 18 -3 3 -9 -2 -12 -12z"/>
<path d="M195 2281 c-3 -5 -2 -12 3 -15 5 -3 9 1 9 9 0 17 -3 19 -12 6z"/>
<path d="M136 2138 c3 -4 11 -5 19 -1 21 7 19 12 -4 10 -11 0 -18 -5 -15 -9z"/>
<path d="M114 2002 c4 -3 14 -7 22 -8 9 -1 13 0 10 4 -4 3 -14 7 -22 8 -9 1
-13 0 -10 -4z"/>
<path d="M95 1940 c3 -5 8 -10 11 -10 2 0 4 5 4 10 0 6 -5 10 -11 10 -5 0 -7
-4 -4 -10z"/>
<path d="M110 1900 c0 -6 7 -10 15 -10 8 0 15 2 15 4 0 2 -7 6 -15 10 -8 3
-15 1 -15 -4z"/>
<path d="M94 1677 c-4 -7 -4 -9 1 -5 4 4 14 3 22 -3 8 -7 13 -8 13 -1 0 15
-28 23 -36 9z"/>
<path d="M95 1579 c-3 -4 2 -6 10 -5 21 3 28 13 10 13 -9 0 -18 -4 -20 -8z"/>
<path d="M125 1559 c-4 -6 -5 -12 -2 -15 2 -3 7 2 10 11 7 17 1 20 -8 4z"/>
<path d="M114 1508 l-19 -23 23 19 c21 18 27 26 19 26 -2 0 -12 -10 -23 -22z"/>
<path d="M95 1460 c3 -5 8 -10 11 -10 2 0 4 5 4 10 0 6 -5 10 -11 10 -5 0 -7
-4 -4 -10z"/>
<path d="M156 1309 c9 -10 21 -16 25 -13 13 8 11 14 -3 12 -7 -2 -12 2 -11 8
1 6 -5 11 -13 11 -12 0 -11 -4 2 -18z"/>
<path d="M193 1263 c4 -3 2 -12 -5 -20 -8 -11 -7 -12 6 -7 18 7 22 34 4 34 -6
0 -8 -3 -5 -7z"/>
<path d="M196 1161 c-3 -4 4 -17 17 -27 22 -19 22 -19 4 2 -9 11 -14 24 -10
27 3 4 4 7 0 7 -3 0 -8 -4 -11 -9z"/>
<path d="M205 1080 c-3 -6 1 -7 9 -4 18 7 21 14 7 14 -6 0 -13 -4 -16 -10z"/>
<path d="M259 1068 c15 -21 31 -23 31 -6 0 6 -3 8 -7 5 -3 -4 -13 -1 -22 6
-14 11 -14 10 -2 -5z"/>
<path d="M235 1040 c-3 -5 -1 -10 4 -10 6 0 11 5 11 10 0 6 -2 10 -4 10 -3 0
-8 -4 -11 -10z"/>
<path d="M296 1027 c3 -10 9 -15 12 -12 3 3 0 11 -7 18 -10 9 -11 8 -5 -6z"/>
<path d="M276 1003 c-6 -14 -5 -15 5 -6 7 7 10 15 7 18 -3 3 -9 -2 -12 -12z"/>
<path d="M317 967 c-3 -8 1 -14 8 -14 7 0 11 6 8 14 -3 7 -6 13 -8 13 -2 0 -5
-6 -8 -13z"/>
<path d="M310 918 c0 -4 4 -8 9 -8 6 0 12 4 15 8 3 5 -1 9 -9 9 -8 0 -15 -4
-15 -9z"/>
<path d="M334 898 c-4 -7 -3 -10 1 -5 5 4 16 0 26 -9 14 -12 18 -13 25 -2 4 7
3 10 -1 5 -5 -4 -16 0 -26 9 -14 12 -18 13 -25 2z"/>
<path d="M410 818 c0 -6 3 -8 7 -5 3 4 13 1 22 -6 14 -11 14 -10 2 6 -15 20
-31 22 -31 5z"/>
<path d="M451 774 c0 -11 3 -14 6 -6 3 7 2 16 -1 19 -3 4 -6 -2 -5 -13z"/>
<path d="M413 765 c0 -8 4 -12 9 -9 5 3 6 10 3 15 -9 13 -12 11 -12 -6z"/>
<path d="M510 716 c0 -2 8 -10 18 -17 15 -13 16 -12 3 4 -13 16 -21 21 -21 13z"/>
<path d="M480 706 c0 -2 8 -10 18 -17 15 -13 16 -12 3 4 -13 16 -21 21 -21 13z"/>
<path d="M550 660 c0 -5 5 -10 11 -10 5 0 7 5 4 10 -3 6 -8 10 -11 10 -2 0 -4
-4 -4 -10z"/>
<path d="M510 646 c0 -2 7 -7 16 -10 8 -3 12 -2 9 4 -6 10 -25 14 -25 6z"/>
<path d="M574 619 c0 -13 3 -15 13 -7 7 6 13 12 13 13 0 2 -6 5 -13 8 -7 3
-13 -3 -13 -14z"/>
<path d="M730 445 c0 -7 30 -13 34 -7 3 4 -4 9 -15 9 -10 1 -19 0 -19 -2z"/>
<path d="M788 443 c10 -4 10 -8 0 -21 -12 -15 -11 -16 4 -3 19 14 15 32 -5 30
-8 0 -8 -2 1 -6z"/>
<path d="M816 413 c-6 -14 -5 -15 5 -6 7 7 10 15 7 18 -3 3 -9 -2 -12 -12z"/>
<path d="M881 376 c-9 -11 -9 -16 1 -22 7 -4 10 -4 6 1 -4 4 -3 14 3 22 6 7 9
13 6 13 -2 0 -10 -6 -16 -14z"/>
<path d="M1017 309 c4 -13 8 -18 11 -10 2 7 -1 18 -6 23 -8 8 -9 4 -5 -13z"/>
<path d="M2429 303 c-13 -16 -12 -17 4 -4 9 7 17 15 17 17 0 8 -8 3 -21 -13z"/>
<path d="M1030 266 c0 -2 7 -7 16 -10 8 -3 12 -2 9 4 -6 10 -25 14 -25 6z"/>
<path d="M1100 260 c-9 -6 -10 -10 -3 -10 6 0 15 5 18 10 8 12 4 12 -15 0z"/>
<path d="M1130 261 c0 -6 4 -13 10 -16 6 -3 7 1 4 9 -7 18 -14 21 -14 7z"/>
<path d="M1215 200 c-3 -5 -1 -10 4 -10 6 0 11 5 11 10 0 6 -2 10 -4 10 -3 0
-8 -4 -11 -10z"/>
<path d="M1300 200 c-9 -6 -10 -10 -3 -10 6 0 15 5 18 10 8 12 4 12 -15 0z"/>
<path d="M1356 173 c-6 -14 -5 -15 5 -6 7 7 10 15 7 18 -3 3 -9 -2 -12 -12z"/>
<path d="M1510 158 c0 -4 4 -8 9 -8 6 0 12 4 15 8 3 5 -1 9 -9 9 -8 0 -15 -4
-15 -9z"/>
<path d="M1613 145 c0 -8 4 -12 9 -9 5 3 6 10 3 15 -9 13 -12 11 -12 -6z"/>
<path d="M1656 147 c3 -10 9 -15 12 -12 3 3 0 11 -7 18 -10 9 -11 8 -5 -6z"/>
<path d="M1916 147 c3 -10 9 -15 12 -12 3 3 0 11 -7 18 -10 9 -11 8 -5 -6z"/>
<path d="M1826 138 c3 -5 10 -6 15 -3 13 9 11 12 -6 12 -8 0 -12 -4 -9 -9z"/>
</g>
</svg>
