<?xml version="1.0" standalone="no"?>
<!DOCTYPE svg PUBLIC "-//W3C//DTD SVG 20010904//EN"
 "http://www.w3.org/TR/2001/REC-SVG-20010904/DTD/svg10.dtd">
<svg version="1.0" xmlns="http://www.w3.org/2000/svg"
 width="846.000000pt" height="846.000000pt" viewBox="0 0 846.000000 846.000000"
 preserveAspectRatio="xMidYMid meet">
<metadata>
Created by potrace 1.11, written by Peter Selinger 2001-2013
</metadata>
<g transform="translate(0.000000,846.000000) scale(0.100000,-0.100000)"
fill="#000000" stroke="none">
<path d="M3955 8170 c-979 -77 -1872 -493 -2545 -1186 -608 -626 -972 -1381
-1092 -2264 -19 -142 -22 -209 -22 -490 0 -281 3 -348 22 -490 120 -883 484
-1638 1092 -2264 314 -323 661 -576 1070 -780 434 -215 824 -331 1330 -392
201 -25 645 -25 855 0 472 55 933 189 1329 388 1038 520 1799 1466 2075 2583
179 722 149 1501 -84 2200 -107 319 -276 667 -458 940 -394 590 -966 1085
-1595 1382 -399 188 -820 308 -1257 358 -167 19 -566 27 -720 15z m705 -1025
c97 -34 168 -128 177 -233 5 -53 -10 -102 -236 -793 -132 -405 -242 -747 -243
-760 l-3 -24 690 -5 690 -5 47 -23 c100 -50 168 -168 154 -271 -7 -61 -52
-146 -308 -586 -118 -203 -400 -689 -625 -1080 -226 -390 -569 -984 -763
-1320 -194 -335 -367 -629 -386 -652 -154 -189 -474 -71 -474 176 0 35 83 396
295 1281 187 783 237 999 230 1010 -4 7 -246 10 -703 10 -745 1 -732 0 -807
51 -47 32 -103 121 -111 176 -4 25 -2 80 5 122 6 42 38 279 71 526 32 248 93
702 134 1010 41 308 91 688 111 845 20 157 41 308 46 336 18 93 90 179 176
210 59 21 1773 20 1833 -1z"/>
</g>
</svg>
